# xmcd
#
# Track frame offsets:
#	150
#	11955
#	23665
#	38050
#	49537
#	62505
#	74390
#	89612
#	106120
#	119462
#	131830
#	146607
#	162950
#	176127
#
# Disc length: 2485 seconds
#
# Revision: 0
# Processed by: cddbd v1.4PL0 Copyright (c) Steve Scherf et al.
# Submitted via: EZCDDA 4.3.3.2
#
DISCID=c109b30e
DTITLE=Richard Clayderman - Músicas Francesas
DYEAR=1900
DGENRE=
TTITLE0=Ballade Pour Adeline
TTITLE1=La Vie En Rose
TTITLE2=La Mer
TTITLE3=Aline
TTITLE4=Ne Me Quitte Pas
TTITLE5=Plaisir D´Amour
TTITLE6=Dolannes Melodie
TTITLE7=Eléana
TTITLE8=Un Homme Et Une Femme
TTITLE9=Les Feuilles Mortes
TTITLE10=A Comme Amour
TTITLE11=Couleur Tendresse (Piano Solo)
TTITLE12=Nostalgy
TTITLE13=Parlez-moi D´Amour
EXTD=
EXTT0=
EXTT1=
EXTT2=
EXTT3=
EXTT4=
EXTT5=
EXTT6=
EXTT7=
EXTT8=
EXTT9=
EXTT10=
EXTT11=
EXTT12=
EXTT13=
PLAYORDER=
